<?xml version="1.0" encoding="UTF-8" standalone="no"?>
<svg
   xmlns:dc="http://purl.org/dc/elements/1.1/"
   xmlns:cc="http://creativecommons.org/ns#"
   xmlns:rdf="http://www.w3.org/1999/02/22-rdf-syntax-ns#"
   xmlns:svg="http://www.w3.org/2000/svg"
   xmlns="http://www.w3.org/2000/svg"
   xmlns:sodipodi="http://sodipodi.sourceforge.net/DTD/sodipodi-0.dtd"
   xmlns:inkscape="http://www.inkscape.org/namespaces/inkscape"
   inkscape:version="1.0 (4035a4fb49, 2020-05-01)"
   height="352"
   width="352"
   sodipodi:docname="times-solid.svg"
   id="svg4"
   version="1.1"
   viewBox="0 0 352 352"
   role="img"
   class="svg-inline--fa fa-times fa-w-11"
   data-icon="times"
   data-prefix="fas"
   focusable="false"
   aria-hidden="true">
  <metadata
     id="metadata10">
    <rdf:RDF>
      <cc:Work
         rdf:about="">
        <dc:format>image/svg+xml</dc:format>
        <dc:type
           rdf:resource="http://purl.org/dc/dcmitype/StillImage" />
        <dc:title></dc:title>
      </cc:Work>
    </rdf:RDF>
  </metadata>
  <defs
     id="defs8" />
  <sodipodi:namedview
     inkscape:current-layer="svg4"
     inkscape:window-maximized="0"
     inkscape:window-y="136"
     inkscape:window-x="0"
     inkscape:cy="176"
     inkscape:cx="176"
     inkscape:zoom="1.890625"
     fit-margin-bottom="0"
     fit-margin-right="0"
     fit-margin-left="0"
     fit-margin-top="0"
     showgrid="false"
     id="namedview6"
     inkscape:window-height="1029"
     inkscape:window-width="1503"
     inkscape:pageshadow="2"
     inkscape:pageopacity="0"
     guidetolerance="10"
     gridtolerance="10"
     objecttolerance="10"
     borderopacity="1"
     bordercolor="#666666"
     pagecolor="#ffffff" />
  <path
     id="path2"
     d="M 242.72,176 342.79,75.93 c 12.28,-12.28 12.28,-32.19 0,-44.48 L 320.55,9.21 c -12.28,-12.28 -32.19,-12.28 -44.48,0 L 176,109.28 75.93,9.21 C 63.65,-3.07 43.74,-3.07 31.45,9.21 L 9.21,31.45 c -12.28,12.28 -12.28,32.19 0,44.48 L 109.28,176 9.21,276.07 c -12.28,12.28 -12.28,32.19 0,44.48 l 22.24,22.24 c 12.28,12.28 32.2,12.28 44.48,0 L 176,242.72 276.07,342.79 c 12.28,12.28 32.2,12.28 44.48,0 l 22.24,-22.24 c 12.28,-12.28 12.28,-32.19 0,-44.48 z"
     fill="currentColor" />
</svg>
