<?xml version="1.0" encoding="UTF-8" standalone="no"?>
<svg
   xmlns:dc="http://purl.org/dc/elements/1.1/"
   xmlns:cc="http://creativecommons.org/ns#"
   xmlns:rdf="http://www.w3.org/1999/02/22-rdf-syntax-ns#"
   xmlns:svg="http://www.w3.org/2000/svg"
   xmlns="http://www.w3.org/2000/svg"
   xmlns:sodipodi="http://sodipodi.sourceforge.net/DTD/sodipodi-0.dtd"
   xmlns:inkscape="http://www.inkscape.org/namespaces/inkscape"
   inkscape:version="1.0 (4035a4fb49, 2020-05-01)"
   height="512"
   width="512"
   sodipodi:docname="arrow-left-solid.svg"
   id="svg4"
   version="1.1"
   viewBox="0 0 512 512"
   role="img"
   class="svg-inline--fa fa-arrow-left fa-w-14"
   data-icon="arrow-left"
   data-prefix="fas"
   focusable="false"
   aria-hidden="true">
  <metadata
     id="metadata10">
    <rdf:RDF>
      <cc:Work
         rdf:about="">
        <dc:format>image/svg+xml</dc:format>
        <dc:type
           rdf:resource="http://purl.org/dc/dcmitype/StillImage" />
        <dc:title></dc:title>
      </cc:Work>
    </rdf:RDF>
  </metadata>
  <defs
     id="defs8" />
  <sodipodi:namedview
     inkscape:current-layer="svg4"
     inkscape:window-maximized="0"
     inkscape:window-y="136"
     inkscape:window-x="0"
     inkscape:cy="256"
     inkscape:cx="224"
     inkscape:zoom="1.890625"
     showgrid="false"
     id="namedview6"
     inkscape:window-height="480"
     inkscape:window-width="806"
     inkscape:pageshadow="2"
     inkscape:pageopacity="0"
     guidetolerance="10"
     gridtolerance="10"
     objecttolerance="10"
     borderopacity="1"
     bordercolor="#666666"
     pagecolor="#ffffff" />
  <path
     id="path2"
     d="m 257.5,445.1 -22.2,22.2 c -9.4,9.4 -24.6,9.4 -33.9,0 L 7,273 c -9.4,-9.4 -9.4,-24.6 0,-33.9 L 201.4,44.7 c 9.4,-9.4 24.6,-9.4 33.9,0 l 22.2,22.2 c 9.5,9.5 9.3,25 -0.4,34.3 L 136.6,216 H 424 c 13.3,0 24,10.7 24,24 v 32 c 0,13.3 -10.7,24 -24,24 H 136.6 l 120.5,114.8 c 9.8,9.3 10,24.8 0.4,34.3 z"
     fill="currentColor" />
</svg>
